<svg xmlns="http://www.w3.org/2000/svg" version="1.1" xmlns:xlink="http://www.w3.org/1999/xlink" width="512" height="512" x="0" y="0" viewBox="0 0 682.667 682.667" style="enable-background:new 0 0 512 512" xml:space="preserve" class=""><g><defs stroke-width="15" style="stroke-width: 15;"><clipPath id="a" clipPathUnits="userSpaceOnUse" stroke-width="15" style="stroke-width: 15;"><path d="M0 512h512V0H0Z" fill="#61c454" opacity="1" data-original="#000000" class="" stroke-width="15" style="stroke-width: 15;"></path></clipPath></defs><g clip-path="url(#a)" transform="matrix(1.33333 0 0 -1.33333 0 682.667)" stroke-width="15" style="stroke-width: 15;"><path d="M0 0a23.533 23.533 0 0 1 1.061 0z" style="stroke-width: 15; stroke-linecap: round; stroke-linejoin: round; stroke-miterlimit: 10; stroke-dasharray: none; stroke-opacity: 1;" transform="translate(27.409 76.722)" fill="none" stroke="#61c454" stroke-width="15" stroke-linecap="round" stroke-linejoin="round" stroke-miterlimit="10" stroke-dasharray="none" stroke-opacity="" data-original="#000000" class="" opacity="1"></path><path d="M0 0v20.985c0 10.557-8.558 19.114-19.114 19.114h-216.448a36.819 36.819 0 0 0-30.591 16.331l-5.009 7.479a36.82 36.82 0 0 1-30.569 16.33l-99.846.064c-15.644.01-28.333-12.669-28.335-28.313l-.054-344.433c0-11.095 8.871-20.118 19.906-20.365" style="stroke-width: 15; stroke-linecap: round; stroke-linejoin: round; stroke-miterlimit: 10; stroke-dasharray: none; stroke-opacity: 1;" transform="translate(437.466 389.53)" fill="none" stroke="#61c454" stroke-width="15" stroke-linecap="round" stroke-linejoin="round" stroke-miterlimit="10" stroke-dasharray="none" stroke-opacity="" data-original="#000000" class="" opacity="1"></path><path d="M0 0h-91.743a6.738 6.738 0 0 1-6.738-6.738v-30.707a6.738 6.738 0 0 1 6.738-6.738H0a6.738 6.738 0 0 1 6.738 6.738v30.707A6.738 6.738 0 0 1 0 0Z" style="stroke-width: 15; stroke-linecap: round; stroke-linejoin: round; stroke-miterlimit: 10; stroke-dasharray: none; stroke-opacity: 1;" transform="translate(195.797 342.38)" fill="none" stroke="#61c454" stroke-width="15" stroke-linecap="round" stroke-linejoin="round" stroke-miterlimit="10" stroke-dasharray="none" stroke-opacity="" data-original="#000000" class="" opacity="1"></path><path d="m0 0 .129 92.261c.012 10.557-8.537 19.124-19.093 19.135l-384.146.421c-10.557.012-19.124-8.537-19.136-19.093l-.272-273.809c-.012-11.099-9.019-20.324-20.118-20.311l241.304-.144" style="stroke-width: 15; stroke-linecap: round; stroke-linejoin: round; stroke-miterlimit: 10; stroke-dasharray: none; stroke-opacity: 1;" transform="translate(470.033 278.118)" fill="none" stroke="#61c454" stroke-width="15" stroke-linecap="round" stroke-linejoin="round" stroke-miterlimit="10" stroke-dasharray="none" stroke-opacity="" data-original="#000000" class="" opacity="1"></path><path d="M0 0c0 63.731 51.664 115.395 115.395 115.395C179.126 115.395 230.79 63.731 230.79 0c0-63.731-51.664-115.395-115.395-115.395C51.664-115.395 0-63.731 0 0Z" style="stroke-width: 15; stroke-linecap: round; stroke-linejoin: round; stroke-miterlimit: 10; stroke-dasharray: none; stroke-opacity: 1;" transform="translate(273.71 157.563)" fill="none" stroke="#61c454" stroke-width="15" stroke-linecap="round" stroke-linejoin="round" stroke-miterlimit="10" stroke-dasharray="none" stroke-opacity="" data-original="#000000" class="" opacity="1"></path><path d="M0 0v-100.057" style="stroke-width: 15; stroke-linecap: round; stroke-linejoin: round; stroke-miterlimit: 10; stroke-dasharray: none; stroke-opacity: 1;" transform="translate(389.105 207.591)" fill="none" stroke="#61c454" stroke-width="15" stroke-linecap="round" stroke-linejoin="round" stroke-miterlimit="10" stroke-dasharray="none" stroke-opacity="" data-original="#000000" class="" opacity="1"></path><path d="m0 0 41.236-40.678L82.473 0" style="stroke-width: 15; stroke-linecap: round; stroke-linejoin: round; stroke-miterlimit: 10; stroke-dasharray: none; stroke-opacity: 1;" transform="translate(347.869 148.213)" fill="none" stroke="#61c454" stroke-width="15" stroke-linecap="round" stroke-linejoin="round" stroke-miterlimit="10" stroke-dasharray="none" stroke-opacity="" data-original="#000000" class="" opacity="1"></path></g></g></svg>